<svg width="17" height="17" viewBox="0 0 17 17" fill="none" xmlns="http://www.w3.org/2000/svg">
<path d="M8.44336 0.295197C9.50423 0.295197 10.5216 0.716624 11.2718 1.46677C12.0219 2.21691 12.4434 3.23433 12.4434 4.2952C12.4434 5.35606 12.0219 6.37348 11.2718 7.12362C10.5216 7.87377 9.50423 8.2952 8.44336 8.2952C7.38249 8.2952 6.36508 7.87377 5.61493 7.12362C4.86479 6.37348 4.44336 5.35606 4.44336 4.2952C4.44336 3.23433 4.86479 2.21691 5.61493 1.46677C6.36508 0.716624 7.38249 0.295197 8.44336 0.295197M8.44336 10.2952C12.8634 10.2952 16.4434 12.0852 16.4434 14.2952V16.2952H0.443359V14.2952C0.443359 12.0852 4.02336 10.2952 8.44336 10.2952Z" fill="#713469"/>
</svg>
